<svg xmlns="http://www.w3.org/2000/svg" data-name="Layer 1" width="786.81995" height="572.25773" viewBox="0 0 786.81995 572.25773" xmlns:xlink="http://www.w3.org/1999/xlink">
    <circle cx="458.32136" cy="74.15133" r="27.53698" fill="#f2f2f2"/>
    <circle cx="458.32136" cy="74.15133" r="16.52019" fill="#0d6efd"/>
    <path d="M827.05074,295.77988H453.3493a6.29693,6.29693,0,0,1-6.29014-6.29014V218.67091a6.29693,6.29693,0,0,1,6.29014-6.29014H827.05074a6.29693,6.29693,0,0,1,6.29014,6.29014v70.81883A6.29693,6.29693,0,0,1,827.05074,295.77988Z" transform="translate(-206.59003 -163.87114)" fill="#0d6efd"/>
    <path d="M824.04041,325.27559H459.98754a13.8001,13.8001,0,0,1,0-27.6002h364.05287a13.8001,13.8001,0,0,1,0,27.6002Z" transform="translate(-206.59003 -163.87114)" fill="#e6e6e6"/>
    <path d="M479.57214,356.01587h-20.1001a13.80009,13.80009,0,0,1,0-27.60019h20.1001a13.80009,13.80009,0,0,1,0,27.60019Z" transform="translate(-206.59003 -163.87114)" fill="#0d6efd"/>
    <path d="M587.12365,356.01587H513.57223a13.80009,13.80009,0,0,1,0-27.60019h73.55142a13.80009,13.80009,0,0,1,0,27.60019Z" transform="translate(-206.59003 -163.87114)" fill="#e6e6e6"/>
    <path d="M823.93146,355.83292h-56.313a13.8001,13.8001,0,0,1,0-27.6002h56.313a13.8001,13.8001,0,0,1,0,27.6002Z" transform="translate(-206.59003 -163.87114)" fill="#0d6efd"/>
    <path d="M823.93851,242.96577H585.42312a5.19656,5.19656,0,0,1,0-10.39312H823.93851a5.19656,5.19656,0,0,1,0,10.39312Z" transform="translate(-206.59003 -163.87114)" fill="#f2f2f2"/>
    <path d="M823.93851,265.75348H585.42312a5.19656,5.19656,0,0,1,0-10.39312H823.93851a5.19656,5.19656,0,0,1,0,10.39312Z" transform="translate(-206.59003 -163.87114)" fill="#f2f2f2"/>
    <path d="M743.93851,288.4378H585.42312a5.19656,5.19656,0,0,1,0-10.39312H743.93851a5.19656,5.19656,0,0,1,0,10.39312Z" transform="translate(-206.59003 -163.87114)" fill="#f2f2f2"/>
    <path d="M481.39,211.686H458.32136c-5.01837,0-9.10248-3.3877-9.10248-7.55676s4.08411-7.55676,9.10248-7.55676H481.39c5.01837,0,9.10248,3.3877,9.10248,7.55676S486.40839,211.686,481.39,211.686Z" transform="translate(-206.59003 -163.87114)" fill="#fff"/>
    <path d="M824.04041,401.61121H459.98754a13.8001,13.8001,0,0,1,0-27.6002h364.05287a13.8001,13.8001,0,0,1,0,27.6002Z" transform="translate(-206.59003 -163.87114)" fill="#e6e6e6"/>
    <path d="M824.04041,401.61121H459.98754a13.8001,13.8001,0,0,1,0-27.6002h364.05287a13.8001,13.8001,0,0,1,0,27.6002Z" transform="translate(-206.59003 -163.87114)" fill="#e6e6e6"/>
    <path d="M824.04041,401.61121H459.98754a13.8001,13.8001,0,0,1,0-27.6002h364.05287a13.8001,13.8001,0,0,1,0,27.6002Z" transform="translate(-206.59003 -163.87114)" fill="#e6e6e6"/>
    <path d="M493.22008,386.57355H479.35854a5.19656,5.19656,0,0,1,0-10.39312h13.86154a5.19656,5.19656,0,0,1,0,10.39312Z" transform="translate(-206.59003 -163.87114)" fill="#0d6efd"/>
    <path d="M561.95,386.57355H505.42312a5.19656,5.19656,0,0,1,0-10.39312H561.95a5.19656,5.19656,0,0,1,0,10.39312Z" transform="translate(-206.59003 -163.87114)" fill="#0d6efd"/>
    <circle cx="396.8215" cy="133.67047" r="13.98" fill="#f2f2f2"/>
    <circle cx="396.8215" cy="210.00683" r="13.98" fill="#f2f2f2"/>
    <circle cx="396.8215" cy="286.3432" r="13.98" fill="#f2f2f2"/>
    <path d="M433.12192,703.8564A102.53263,102.53263,0,0,0,530.12875,569.734h417.475a102.55,102.55,0,1,0,0-205.1h-2.475v-1.05a143.4636,143.4636,0,0,0-286.9272,0v1.05h-2.475a102.46992,102.46992,0,0,0-99.59375,134.1498C474.28237,508.501,415.21722,589.18335,433.12192,703.8564Z" transform="translate(-206.59003 -163.87114)" fill="#f2f2f2"/>
    <rect x="519.00995" y="344.25773" width="150" height="90" fill="#28a745"/>
    <path d="M497.09,233.73286a143.81505,143.81505,0,0,1,143.8-143.8v143.8Z" transform="translate(-206.59003 -163.87114)" fill="#ffc107"/>
    <path d="M352.27956,342.93273h150v-150A150.00025,150.00025,0,0,0,352.27956,342.93273Z" transform="translate(-206.59003 -163.87114)" fill="#17a2b8"/>
    <path d="M352.27956,342.93273h150v-150A150.00025,150.00025,0,0,0,352.27956,342.93273Z" transform="translate(-206.59003 -163.87114)" opacity="0.2"/>
    <path d="M805.27907,405.43247a75.01129,75.01129,0,1,1-75.01129-75.01129A75.09556,75.09556,0,0,1,805.27907,405.43247Z" transform="translate(-206.59003 -163.87114)" fill="#ffc107"/>
    <rect x="271.5" y="156.25773" width="65" height="65" fill="#28a745" opacity="0.4"/>
    <rect x="251.5" y="417.25773" width="65" height="65" fill="#0d6efd"/>
    <rect x="533.5" y="250.25773" width="40" height="40" fill="#ffc107" opacity="0.4"/>
    <rect x="384.5" y="338.25773" width="15" height="15" fill="#28a745" opacity="0.4"/>
    <rect x="307.5" y="401.25773" width="15" height="15" fill="#28a745" opacity="0.3"/>
    <rect x="611.5" y="416.25773" width="15" height="15" fill="#0d6efd" opacity="0.2"/>
    <rect x="352.5" y="260.25773" width="15" height="15" fill="#0d6efd" opacity="0.3"/>
    <rect x="225.5" y="338.25773" width="15" height="15" fill="#0d6efd" opacity="0.2"/>
    <rect x="292.5" y="247.25773" width="15" height="15" fill="#0d6efd" opacity="0.2"/>
    <rect x="531.5" y="338.25773" width="15" height="15" fill="#0d6efd" opacity="0.2"/>
</svg> 